<!DOCTYPE svg PUBLIC "-//W3C//DTD SVG 1.1//EN" "http://www.w3.org/Graphics/SVG/1.1/DTD/svg11.dtd">
<!-- Uploaded to: SVG Repo, www.svgrepo.com, Transformed by: SVG Repo Mixer Tools -->
<svg fill="#163A34" width="800px" height="800px" viewBox="0 0 64 64" xmlns="http://www.w3.org/2000/svg">
<g id="SVGRepo_bgCarrier" stroke-width="0"/>
<g id="SVGRepo_tracerCarrier" stroke-linecap="round" stroke-linejoin="round"/>
<g id="SVGRepo_iconCarrier"> <title/> <g data-name="Layer 48" id="Layer_48"> <path d="M45,27V24H35V8.6L32,2.83,29,8.6V24H19v3a7,7,0,0,0,4,6.33L25.42,52A7,7,0,0,0,19,59v1H45V59a7,7,0,0,0-6.42-7L41,33.33A7,7,0,0,0,45,27ZM31,9.09l1-1.92,1,1.92V24H31ZM21,27V26H43v1a5,5,0,0,1-5,5H26A5,5,0,0,1,21,27ZM42.9,58H21.1A5,5,0,0,1,26,54H38A5,5,0,0,1,42.9,58Zm-4-24-2.3,18H27.44l-2.3-18H38.86Z"/> </g> </g>
</svg>